<?xml version="1.0" encoding="utf-8"?>
<!-- Generator: Adobe Illustrator 26.4.1, SVG Export Plug-In . SVG Version: 6.00 Build 0)  -->
<svg version="1.1" id="Layer_1" xmlns="http://www.w3.org/2000/svg" xmlns:xlink="http://www.w3.org/1999/xlink" x="0px" y="0px"
	 viewBox="0 0 200 200" style="enable-background:new 0 0 200 200;" xml:space="preserve">
<style type="text/css">
	.st0{fill:#F5DF56;}
</style>
<g id="XMLID_00000078031851008873613870000012722234585188398783_">
	<g>
		<path class="st0" d="M171.5,76.2c0,28.8-10,36.9-64.2,115.4c-3.5,5.1-11.1,5.1-14.7,0C38.5,113,28.5,105,28.5,76.2
			c0-39.5,32-71.5,71.5-71.5S171.5,36.7,171.5,76.2z M129.8,76.2c0-16.5-13.3-29.8-29.8-29.8S70.2,59.7,70.2,76.2S83.5,106,100,106
			S129.8,92.6,129.8,76.2z"/>
		<circle class="st0" cx="100" cy="76.2" r="29.8"/>
	</g>
</g>
<path d="M85.1,50.4c-6.9,4-11.8,10.4-13.9,18.1c-2.1,7.7-1,15.7,3,22.6c5.3,9.2,15.2,14.9,25.8,14.9c3.4,0,6.7-0.6,9.8-1.7
	l13.4,23.2l9.6-5.5l-13.4-23.2c4.5-3.9,7.8-9,9.4-14.9c2.1-7.7,1-15.7-3-22.6c-5.3-9.2-15.2-14.9-25.8-14.9
	C94.8,46.4,89.6,47.8,85.1,50.4z M116.2,66.8c2.5,4.3,3.2,9.4,1.9,14.2s-4.4,8.9-8.7,11.4c-2.9,1.6-6.1,2.5-9.4,2.5
	c-6.7,0-12.9-3.6-16.3-9.4c-2.5-4.3-3.2-9.4-1.9-14.2c1.3-4.8,4.4-8.9,8.7-11.4c2.9-1.6,6.1-2.5,9.4-2.5
	C106.7,57.4,112.9,61,116.2,66.8z"/>
</svg>
